<svg width="28" height="43" viewBox="0 0 28 43" fill="none" xmlns="http://www.w3.org/2000/svg">
<path d="M18.6667 19.35H9.33333C8.09566 19.35 6.90867 18.897 6.0335 18.0906C5.15833 17.2842 4.66667 16.1904 4.66667 15.05C4.66667 13.9096 5.15833 12.8158 6.0335 12.0094C6.90867 11.203 8.09566 10.75 9.33333 10.75H21C21.6188 10.75 22.2123 10.9765 22.6499 11.3797C23.0875 11.7829 23.3333 12.3298 23.3333 12.9C23.3333 13.4702 23.5792 14.0171 24.0167 14.4203C24.4543 14.8235 25.0478 15.05 25.6667 15.05C26.2855 15.05 26.879 14.8235 27.3166 14.4203C27.7542 14.0171 28 13.4702 28 12.9C28 11.1894 27.2625 9.54877 25.9497 8.33916C24.637 7.12955 22.8565 6.45 21 6.45H16.3333V2.15C16.3333 1.57978 16.0875 1.03292 15.6499 0.62972C15.2123 0.226517 14.6188 0 14 0C13.3812 0 12.7877 0.226517 12.3501 0.62972C11.9125 1.03292 11.6667 1.57978 11.6667 2.15V6.45H9.33333C6.85798 6.45 4.48401 7.35607 2.73367 8.96888C0.98333 10.5817 0 12.7691 0 15.05C0 17.3309 0.98333 19.5183 2.73367 21.1311C4.48401 22.7439 6.85798 23.65 9.33333 23.65H18.6667C19.9043 23.65 21.0913 24.103 21.9665 24.9094C22.8417 25.7158 23.3333 26.8096 23.3333 27.95C23.3333 29.0904 22.8417 30.1842 21.9665 30.9906C21.0913 31.797 19.9043 32.25 18.6667 32.25H7C6.38116 32.25 5.78767 32.0235 5.35008 31.6203C4.9125 31.2171 4.66667 30.6702 4.66667 30.1C4.66667 29.5298 4.42083 28.9829 3.98325 28.5797C3.54566 28.1765 2.95217 27.95 2.33333 27.95C1.71449 27.95 1.121 28.1765 0.683418 28.5797C0.245833 28.9829 0 29.5298 0 30.1C0 31.8106 0.737498 33.4512 2.05025 34.6608C3.36301 35.8704 5.14348 36.55 7 36.55H11.6667V40.85C11.6667 41.4202 11.9125 41.9671 12.3501 42.3703C12.7877 42.7735 13.3812 43 14 43C14.6188 43 15.2123 42.7735 15.6499 42.3703C16.0875 41.9671 16.3333 41.4202 16.3333 40.85V36.55H18.6667C21.142 36.55 23.516 35.6439 25.2663 34.0311C27.0167 32.4183 28 30.2309 28 27.95C28 25.6691 27.0167 23.4817 25.2663 21.8689C23.516 20.2561 21.142 19.35 18.6667 19.35Z" fill="#E0AC76"/>
</svg>
