<svg width="56" height="43" viewBox="0 0 56 43" fill="none" xmlns="http://www.w3.org/2000/svg">
<path d="M28.5824 22.0565C29.932 20.8882 31.0145 19.4433 31.7564 17.8198C32.4984 16.1962 32.8824 14.4321 32.8824 12.6471C32.8824 9.29285 31.5499 6.07602 29.1781 3.70424C26.8063 1.33245 23.5895 4.5254e-07 20.2353 4.5254e-07C16.8811 4.5254e-07 13.6643 1.33245 11.2925 3.70424C8.92069 6.07602 7.58824 9.29285 7.58824 12.6471C7.58822 14.4321 7.9722 16.1962 8.71414 17.8198C9.45608 19.4433 10.5386 20.8882 11.8882 22.0565C8.34741 23.6598 5.34329 26.249 3.23507 29.5146C1.12684 32.7801 0.00372293 36.5837 0 40.4706C0 41.1414 0.266491 41.7848 0.740847 42.2592C1.2152 42.7335 1.85857 43 2.52941 43C3.20025 43 3.84362 42.7335 4.31798 42.2592C4.79233 41.7848 5.05882 41.1414 5.05882 40.4706C5.05882 36.4455 6.65777 32.5853 9.50391 29.7392C12.35 26.8931 16.2102 25.2941 20.2353 25.2941C24.2603 25.2941 28.1205 26.8931 30.9667 29.7392C33.8128 32.5853 35.4118 36.4455 35.4118 40.4706C35.4118 41.1414 35.6783 41.7848 36.1526 42.2592C36.627 42.7335 37.2703 43 37.9412 43C38.612 43 39.2554 42.7335 39.7297 42.2592C40.2041 41.7848 40.4706 41.1414 40.4706 40.4706C40.4669 36.5837 39.3437 32.7801 37.2355 29.5146C35.1273 26.249 32.1232 23.6598 28.5824 22.0565ZM20.2353 20.2353C18.7345 20.2353 17.2674 19.7903 16.0195 18.9564C14.7716 18.1226 13.799 16.9375 13.2247 15.551C12.6503 14.1644 12.5001 12.6386 12.7929 11.1667C13.0857 9.69469 13.8084 8.3426 14.8696 7.28137C15.9308 6.22013 17.2829 5.49742 18.7549 5.20463C20.2269 4.91184 21.7526 5.06211 23.1392 5.63644C24.5258 6.21078 25.7109 7.18338 26.5447 8.43126C27.3785 9.67914 27.8235 11.1462 27.8235 12.6471C27.8235 14.6596 27.0241 16.5897 25.601 18.0128C24.1779 19.4358 22.2478 20.2353 20.2353 20.2353ZM44.8718 21.0447C46.4905 19.2218 47.5479 16.97 47.9167 14.5602C48.2854 12.1503 47.9499 9.68531 46.9503 7.46176C45.9508 5.23822 44.3299 3.35095 42.2828 2.02713C40.2357 0.703303 37.8496 -0.000651577 35.4118 4.5254e-07C34.7409 4.5254e-07 34.0976 0.266491 33.6232 0.740848C33.1488 1.2152 32.8824 1.85857 32.8824 2.52941C32.8824 3.20025 33.1488 3.84362 33.6232 4.31798C34.0976 4.79233 34.7409 5.05882 35.4118 5.05882C37.4243 5.05882 39.3544 5.8583 40.7775 7.28137C42.2005 8.70444 43 10.6345 43 12.6471C42.9964 13.9756 42.6441 15.2799 41.9783 16.4296C41.3124 17.5793 40.3564 18.534 39.2059 19.1982C38.8309 19.4146 38.5177 19.7235 38.2962 20.0955C38.0748 20.4675 37.9525 20.8902 37.9412 21.3229C37.9306 21.7523 38.0295 22.1774 38.2287 22.5579C38.4278 22.9385 38.7206 23.2621 39.0794 23.4982L40.0659 24.1559L40.3947 24.3329C43.4436 25.7791 46.0158 28.0663 47.8084 30.9254C49.6009 33.7844 50.539 37.0962 50.5124 40.4706C50.5124 41.1414 50.7788 41.7848 51.2532 42.2592C51.7276 42.7335 52.3709 43 53.0418 43C53.7126 43 54.356 42.7335 54.8303 42.2592C55.3047 41.7848 55.5712 41.1414 55.5712 40.4706C55.5919 36.589 54.6197 32.7666 52.747 29.3666C50.8743 25.9666 48.1634 23.1019 44.8718 21.0447Z" fill="#E0AC76"/>
</svg>
