<svg width="43" height="43" viewBox="0 0 43 43" fill="none" xmlns="http://www.w3.org/2000/svg">
<path d="M21.5 0C17.2477 0 13.0909 1.26095 9.55525 3.6234C6.01959 5.98585 3.26388 9.34369 1.6366 13.2723C0.0093156 17.2009 -0.416456 21.5238 0.413126 25.6944C1.24271 29.865 3.29038 33.696 6.29721 36.7028C9.30404 39.7096 13.135 41.7573 17.3056 42.5869C21.4762 43.4165 25.7991 42.9907 29.7277 41.3634C33.6563 39.7361 37.0141 36.9804 39.3766 33.4448C41.739 29.9091 43 25.7523 43 21.5C43 18.6766 42.4439 15.8808 41.3634 13.2723C40.2829 10.6638 38.6993 8.29366 36.7028 6.2972C34.7063 4.30074 32.3362 2.71707 29.7277 1.63659C27.1192 0.556114 24.3234 0 21.5 0ZM21.5 38.7C18.0982 38.7 14.7727 37.6912 11.9442 35.8013C9.11567 33.9113 6.91111 31.225 5.60928 28.0821C4.30745 24.9393 3.96684 21.4809 4.6305 18.1444C5.29417 14.808 6.93231 11.7432 9.33777 9.33776C11.7432 6.9323 14.808 5.29416 18.1445 4.63049C21.4809 3.96683 24.9393 4.30744 28.0822 5.60927C31.225 6.9111 33.9113 9.11566 35.8013 11.9442C37.6912 14.7727 38.7 18.0982 38.7 21.5C38.7 26.0617 36.8879 30.4366 33.6622 33.6622C30.4366 36.8879 26.0617 38.7 21.5 38.7ZM21.5 8.6C20.9298 8.6 20.3829 8.82652 19.9797 9.22972C19.5765 9.63292 19.35 10.1798 19.35 10.75V19.35H15.05C14.4798 19.35 13.9329 19.5765 13.5297 19.9797C13.1265 20.3829 12.9 20.9298 12.9 21.5C12.9 22.0702 13.1265 22.6171 13.5297 23.0203C13.9329 23.4235 14.4798 23.65 15.05 23.65H21.5C22.0702 23.65 22.6171 23.4235 23.0203 23.0203C23.4235 22.6171 23.65 22.0702 23.65 21.5V10.75C23.65 10.1798 23.4235 9.63292 23.0203 9.22972C22.6171 8.82652 22.0702 8.6 21.5 8.6Z" fill="#E0AC76"/>
</svg>
