<svg width="43" height="43" viewBox="0 0 43 43" fill="none" xmlns="http://www.w3.org/2000/svg">
<path d="M11.825 30.1C12.6803 30.1 13.5006 29.7602 14.1054 29.1554C14.7102 28.5506 15.05 27.7303 15.05 26.875C15.0605 26.7678 15.0605 26.6597 15.05 26.5525L21.0485 20.554H21.543H22.0375L25.499 24.0155C25.499 24.0155 25.499 24.123 25.499 24.1875C25.499 25.0428 25.8388 25.8631 26.4436 26.4679C27.0484 27.0727 27.8687 27.4125 28.724 27.4125C29.5793 27.4125 30.3996 27.0727 31.0044 26.4679C31.6092 25.8631 31.949 25.0428 31.949 24.1875V24.0155L39.775 16.125C40.4128 16.125 41.0364 15.9359 41.5667 15.5815C42.0971 15.2271 42.5104 14.7234 42.7545 14.1342C42.9986 13.5449 43.0625 12.8964 42.938 12.2708C42.8136 11.6452 42.5064 11.0706 42.0554 10.6196C41.6044 10.1686 41.0298 9.86141 40.4042 9.73697C39.7786 9.61253 39.1301 9.6764 38.5408 9.92049C37.9516 10.1646 37.4479 10.5779 37.0935 11.1083C36.7391 11.6386 36.55 12.2622 36.55 12.9C36.5395 13.0072 36.5395 13.1153 36.55 13.2225L28.7885 20.984H28.4445L24.725 17.2C24.725 16.3447 24.3852 15.5244 23.7804 14.9196C23.1756 14.3148 22.3553 13.975 21.5 13.975C20.6447 13.975 19.8244 14.3148 19.2196 14.9196C18.6148 15.5244 18.275 16.3447 18.275 17.2L11.825 23.65C10.9697 23.65 10.1494 23.9898 9.54458 24.5946C8.93978 25.1994 8.6 26.0197 8.6 26.875C8.6 27.7303 8.93978 28.5506 9.54458 29.1554C10.1494 29.7602 10.9697 30.1 11.825 30.1ZM40.85 38.7H4.3V2.15C4.3 1.57978 4.07348 1.03292 3.67028 0.62972C3.26708 0.226517 2.72022 0 2.15 0C1.57978 0 1.03292 0.226517 0.62972 0.62972C0.226517 1.03292 0 1.57978 0 2.15V40.85C0 41.4202 0.226517 41.9671 0.62972 42.3703C1.03292 42.7735 1.57978 43 2.15 43H40.85C41.4202 43 41.9671 42.7735 42.3703 42.3703C42.7735 41.9671 43 41.4202 43 40.85C43 40.2798 42.7735 39.7329 42.3703 39.3297C41.9671 38.9265 41.4202 38.7 40.85 38.7Z" fill="#E0AC76"/>
</svg>
