<svg width="24" height="24" viewBox="0 0 24 24" fill="none" xmlns="http://www.w3.org/2000/svg">
<path d="M23.7318 1.944C23.8711 1.76838 23.9584 1.55727 23.9839 1.33458C24.0093 1.11188 23.9719 0.886512 23.8758 0.684C23.7785 0.479794 23.6256 0.307233 23.4345 0.186212C23.2434 0.0651919 23.022 0.000640282 22.7958 0H1.19581C0.969624 0.000640282 0.748227 0.0651919 0.557142 0.186212C0.366057 0.307233 0.213066 0.479794 0.115808 0.684C0.0197397 0.886512 -0.0176893 1.11188 0.00776145 1.33458C0.0332122 1.55727 0.120525 1.76838 0.259808 1.944L10.7958 15.12V21.6H3.89581C3.57755 21.6 3.27232 21.7264 3.04728 21.9515C2.82224 22.1765 2.69581 22.4817 2.69581 22.8C2.69581 23.1183 2.82224 23.4235 3.04728 23.6485C3.27232 23.8736 3.57755 24 3.89581 24H20.0958C20.4141 24 20.7193 23.8736 20.9443 23.6485C21.1694 23.4235 21.2958 23.1183 21.2958 22.8C21.2958 22.4817 21.1694 22.1765 20.9443 21.9515C20.7193 21.7264 20.4141 21.6 20.0958 21.6H13.1958V15.12L23.7318 1.944ZM3.69181 2.4H20.2998L17.4198 6H6.61981L3.69181 2.4ZM11.9958 12.78L8.49181 8.4H15.4998L11.9958 12.78Z" fill="#E0AC76"/>
</svg>
