<svg width="18" height="18" viewBox="0 0 18 18" fill="none" xmlns="http://www.w3.org/2000/svg">
<path fill-rule="evenodd" clip-rule="evenodd" d="M15.2357 0.366117C15.7238 -0.122039 16.5153 -0.122039 17.0034 0.366117C17.4916 0.854272 17.4916 1.64573 17.0034 2.13388L10.4525 8.68478L17.0034 15.2357C17.4916 15.7238 17.4916 16.5153 17.0034 17.0034C16.5153 17.4916 15.7238 17.4916 15.2357 17.0034L8.68478 10.4525L2.13388 17.0034C1.64573 17.4916 0.854272 17.4916 0.366117 17.0034C-0.122039 16.5153 -0.122039 15.7238 0.366117 15.2357L6.91702 8.68478L0.366118 2.13388C-0.122037 1.64573 -0.122037 0.854272 0.366118 0.366117C0.854273 -0.122039 1.64573 -0.122039 2.13388 0.366117L8.68478 6.91702L15.2357 0.366117Z" fill="white"/>
</svg>
