<svg width="27" height="23" viewBox="0 0 27 23" fill="none" xmlns="http://www.w3.org/2000/svg">
<path d="M22.9325 4.04695H21.2058L20.7742 2.69797C20.4943 1.90644 19.9752 1.22153 19.2888 0.738134C18.6024 0.25474 17.7826 -0.00320637 16.9431 3.0087e-05H10.0363C9.18859 0.00161609 8.36273 0.269397 7.67533 0.765579C6.98794 1.26176 6.47373 1.96129 6.20527 2.76542L5.7736 4.11439H4.04692C2.97361 4.11439 1.94426 4.54076 1.18531 5.29971C0.42637 6.05865 0 7.088 0 8.16131V18.9531C0 20.0264 0.42637 21.0557 1.18531 21.8147C1.94426 22.5736 2.97361 23 4.04692 23H22.9325C24.0058 23 25.0352 22.5736 25.7941 21.8147C26.5531 21.0557 26.9794 20.0264 26.9794 18.9531V8.16131C26.9884 7.62421 26.8903 7.09071 26.691 6.5919C26.4916 6.0931 26.1949 5.63897 25.8182 5.25601C25.4415 4.87304 24.9924 4.5689 24.4969 4.36132C24.0015 4.15374 23.4697 4.04687 22.9325 4.04695ZM24.2815 18.8856C24.2815 19.2434 24.1394 19.5865 23.8864 19.8395C23.6334 20.0925 23.2903 20.2346 22.9325 20.2346H4.04692C3.68915 20.2346 3.34603 20.0925 3.09305 19.8395C2.84007 19.5865 2.69794 19.2434 2.69794 18.8856V8.09386C2.69794 7.73609 2.84007 7.39298 3.09305 7.13999C3.34603 6.88701 3.68915 6.74489 4.04692 6.74489H6.74486C7.03902 6.76024 7.33013 6.67889 7.57371 6.51325C7.8173 6.34762 7.99997 6.1068 8.09383 5.82759L8.82228 3.61527C8.91277 3.34734 9.08519 3.11462 9.31515 2.95002C9.54511 2.78541 9.82099 2.69724 10.1038 2.69797H17.0105C17.2933 2.69724 17.5692 2.78541 17.7992 2.95002C18.0291 3.11462 18.2016 3.34734 18.2921 3.61527L19.0205 5.82759C19.1071 6.0849 19.2692 6.3101 19.4859 6.47376C19.7025 6.63742 19.9634 6.73191 20.2346 6.74489H22.9325C23.2903 6.74489 23.6334 6.88701 23.8864 7.13999C24.1394 7.39298 24.2815 7.73609 24.2815 8.09386V18.8856ZM13.4897 6.74489C12.4225 6.74489 11.3793 7.06135 10.4919 7.65426C9.60457 8.24717 8.91297 9.08989 8.50457 10.0759C8.09617 11.0618 7.98931 12.1468 8.19751 13.1935C8.40571 14.2402 8.91962 15.2016 9.67425 15.9562C10.4289 16.7109 11.3903 17.2248 12.437 17.433C13.4837 17.6412 14.5687 17.5343 15.5546 17.1259C16.5406 16.7175 17.3833 16.0259 17.9762 15.1386C18.5691 14.2512 18.8856 13.208 18.8856 12.1408C18.8856 10.7097 18.3171 9.33723 17.3052 8.32531C16.2933 7.31338 14.9208 6.74489 13.4897 6.74489ZM13.4897 14.8387C12.9561 14.8387 12.4345 14.6805 11.9908 14.384C11.5471 14.0876 11.2013 13.6662 10.9971 13.1732C10.7929 12.6802 10.7395 12.1378 10.8436 11.6144C10.9477 11.0911 11.2047 10.6104 11.582 10.233C11.9593 9.85573 12.44 9.59877 12.9634 9.49467C13.4867 9.39057 14.0292 9.444 14.5222 9.6482C15.0152 9.8524 15.4365 10.1982 15.733 10.6419C16.0294 11.0856 16.1877 11.6072 16.1877 12.1408C16.1877 12.8563 15.9034 13.5425 15.3975 14.0485C14.8915 14.5545 14.2053 14.8387 13.4897 14.8387Z" fill="#E0AC76"/>
</svg>
