<svg width="26" height="26" viewBox="0 0 26 26" fill="none" xmlns="http://www.w3.org/2000/svg">
<path d="M13.0002 2.16667C10.7016 2.16667 8.49722 3.07976 6.8719 4.70508C5.24659 6.3304 4.3335 8.5348 4.3335 10.8333C4.3335 16.6833 11.971 23.2917 12.296 23.5733C12.4922 23.7412 12.7419 23.8334 13.0002 23.8334C13.2584 23.8334 13.5081 23.7412 13.7043 23.5733C14.0835 23.2917 21.6668 16.6833 21.6668 10.8333C21.6668 8.5348 20.7537 6.3304 19.1284 4.70508C17.5031 3.07976 15.2987 2.16667 13.0002 2.16667ZM13.0002 21.2875C10.6927 19.1208 6.50016 14.4517 6.50016 10.8333C6.50016 9.10943 7.18498 7.45613 8.40397 6.23714C9.62295 5.01816 11.2763 4.33334 13.0002 4.33334C14.7241 4.33334 16.3774 5.01816 17.5964 6.23714C18.8153 7.45613 19.5002 9.10943 19.5002 10.8333C19.5002 14.4517 15.3077 19.1317 13.0002 21.2875ZM13.0002 6.50001C12.1431 6.50001 11.3053 6.75415 10.5927 7.2303C9.88008 7.70646 9.32466 8.38323 8.99668 9.17504C8.6687 9.96686 8.58289 10.8381 8.75009 11.6787C8.91729 12.5193 9.33001 13.2914 9.93603 13.8975C10.5421 14.5035 11.3142 14.9162 12.1548 15.0834C12.9954 15.2506 13.8666 15.1648 14.6585 14.8368C15.4503 14.5088 16.127 13.9534 16.6032 13.2408C17.0793 12.5282 17.3335 11.6904 17.3335 10.8333C17.3335 9.68407 16.8769 8.58187 16.0643 7.76921C15.2516 6.95655 14.1494 6.50001 13.0002 6.50001ZM13.0002 13C12.5716 13 12.1527 12.8729 11.7964 12.6349C11.4401 12.3968 11.1624 12.0584 10.9984 11.6625C10.8344 11.2666 10.7915 10.8309 10.8751 10.4106C10.9587 9.99035 11.1651 9.60429 11.4681 9.30127C11.7711 8.99826 12.1572 8.7919 12.5775 8.7083C12.9978 8.6247 13.4334 8.66761 13.8293 8.8316C14.2252 8.99559 14.5636 9.2733 14.8017 9.6296C15.0398 9.98591 15.1668 10.4048 15.1668 10.8333C15.1668 11.408 14.9386 11.9591 14.5322 12.3654C14.1259 12.7717 13.5748 13 13.0002 13Z" fill="white"/>
</svg>
