<svg width="18" height="24" viewBox="0 0 18 24" fill="none" xmlns="http://www.w3.org/2000/svg">
<path d="M8.72727 15.2727C9.88458 15.2727 10.9945 14.813 11.8128 13.9946C12.6312 13.1763 13.0909 12.0664 13.0909 10.9091V4.36364C13.0909 3.20633 12.6312 2.09642 11.8128 1.27808C10.9945 0.459739 9.88458 0 8.72727 0C7.56996 0 6.46006 0.459739 5.64172 1.27808C4.82337 2.09642 4.36364 3.20633 4.36364 4.36364V10.9091C4.36364 12.0664 4.82337 13.1763 5.64172 13.9946C6.46006 14.813 7.56996 15.2727 8.72727 15.2727ZM6.54545 4.36364C6.54545 3.78498 6.77532 3.23003 7.18449 2.82086C7.59367 2.41169 8.14862 2.18182 8.72727 2.18182C9.30593 2.18182 9.86088 2.41169 10.2701 2.82086C10.6792 3.23003 10.9091 3.78498 10.9091 4.36364V10.9091C10.9091 11.4877 10.6792 12.0427 10.2701 12.4519C9.86088 12.861 9.30593 13.0909 8.72727 13.0909C8.14862 13.0909 7.59367 12.861 7.18449 12.4519C6.77532 12.0427 6.54545 11.4877 6.54545 10.9091V4.36364ZM17.4545 10.9091C17.4545 10.6198 17.3396 10.3423 17.135 10.1377C16.9304 9.93312 16.653 9.81818 16.3636 9.81818C16.0743 9.81818 15.7968 9.93312 15.5922 10.1377C15.3877 10.3423 15.2727 10.6198 15.2727 10.9091C15.2727 12.6451 14.5831 14.3099 13.3556 15.5374C12.1281 16.7649 10.4632 17.4545 8.72727 17.4545C6.99131 17.4545 5.32645 16.7649 4.09894 15.5374C2.87143 14.3099 2.18182 12.6451 2.18182 10.9091C2.18182 10.6198 2.06688 10.3423 1.8623 10.1377C1.65771 9.93312 1.38024 9.81818 1.09091 9.81818C0.801582 9.81818 0.524105 9.93312 0.31952 10.1377C0.114935 10.3423 0 10.6198 0 10.9091C0.00192632 13.0334 0.778606 15.0841 2.18443 16.6767C3.59026 18.2693 5.52871 19.2945 7.63636 19.56V21.8182H5.45455C5.16522 21.8182 4.88774 21.9331 4.68316 22.1377C4.47857 22.3423 4.36364 22.6198 4.36364 22.9091C4.36364 23.1984 4.47857 23.4759 4.68316 23.6805C4.88774 23.8851 5.16522 24 5.45455 24H12C12.2893 24 12.5668 23.8851 12.7714 23.6805C12.976 23.4759 13.0909 23.1984 13.0909 22.9091C13.0909 22.6198 12.976 22.3423 12.7714 22.1377C12.5668 21.9331 12.2893 21.8182 12 21.8182H9.81818V19.56C11.9258 19.2945 13.8643 18.2693 15.2701 16.6767C16.6759 15.0841 17.4526 13.0334 17.4545 10.9091Z" fill="#E0AC76"/>
</svg>
