<svg width="29" height="23" viewBox="0 0 29 23" fill="none" xmlns="http://www.w3.org/2000/svg">
<path d="M1.44419 14.375C1.06116 14.375 0.69383 14.5265 0.422993 14.796C0.152155 15.0656 5.71692e-07 15.4313 5.71692e-07 15.8125C5.71692e-07 16.1937 0.152155 16.5594 0.422993 16.829C0.69383 17.0985 1.06116 17.25 1.44419 17.25C2.59325 17.25 3.69526 17.7044 4.50777 18.5131C5.32028 19.3219 5.77674 20.4188 5.77674 21.5625C5.77674 21.9437 5.9289 22.3094 6.19974 22.579C6.47057 22.8486 6.83791 23 7.22093 23C7.60395 23 7.97129 22.8486 8.24212 22.579C8.51296 22.3094 8.66512 21.9437 8.66512 21.5625C8.66512 19.6563 7.90434 17.8281 6.55016 16.4802C5.19597 15.1323 3.3593 14.375 1.44419 14.375ZM0.418814 20.5419C0.218026 20.7434 0.0816563 20.9995 0.0268907 21.2781C-0.027875 21.5566 0.00141463 21.845 0.111068 22.107C0.220722 22.369 0.405833 22.5928 0.643071 22.7502C0.880309 22.9077 1.15906 22.9917 1.44419 22.9917C1.72932 22.9917 2.00806 22.9077 2.2453 22.7502C2.48254 22.5928 2.66765 22.369 2.7773 22.107C2.88696 21.845 2.91625 21.5566 2.86148 21.2781C2.80672 20.9995 2.67035 20.7434 2.46956 20.5419C2.3353 20.4071 2.17557 20.3002 1.99959 20.2272C1.8236 20.1542 1.63484 20.1167 1.44419 20.1167C1.25354 20.1167 1.06477 20.1542 0.888787 20.2272C0.712799 20.3002 0.55307 20.4071 0.418814 20.5419ZM24.5512 0H4.33256C3.18349 0 2.08149 0.454352 1.26898 1.2631C0.456465 2.07185 5.71692e-07 3.16875 5.71692e-07 4.3125C5.71692e-07 4.69375 0.152155 5.05938 0.422993 5.32897C0.69383 5.59855 1.06116 5.75 1.44419 5.75C1.82721 5.75 2.19454 5.59855 2.46538 5.32897C2.73622 5.05938 2.88837 4.69375 2.88837 4.3125C2.88837 3.93125 3.04053 3.56562 3.31137 3.29603C3.5822 3.02645 3.94954 2.875 4.33256 2.875H24.5512C24.9342 2.875 25.3015 3.02645 25.5724 3.29603C25.8432 3.56562 25.9953 3.93125 25.9953 4.3125V18.6875C25.9953 19.0687 25.8432 19.4344 25.5724 19.704C25.3015 19.9736 24.9342 20.125 24.5512 20.125H18.7744C18.3914 20.125 18.0241 20.2764 17.7532 20.546C17.4824 20.8156 17.3302 21.1813 17.3302 21.5625C17.3302 21.9437 17.4824 22.3094 17.7532 22.579C18.0241 22.8486 18.3914 23 18.7744 23H24.5512C25.7002 23 26.8022 22.5456 27.6147 21.7369C28.4273 20.9281 28.8837 19.8312 28.8837 18.6875V4.3125C28.8837 3.16875 28.4273 2.07185 27.6147 1.2631C26.8022 0.454352 25.7002 0 24.5512 0ZM1.44419 8.625C1.06116 8.625 0.69383 8.77645 0.422993 9.04603C0.152155 9.31562 5.71692e-07 9.68125 5.71692e-07 10.0625C5.71692e-07 10.4437 0.152155 10.8094 0.422993 11.079C0.69383 11.3485 1.06116 11.5 1.44419 11.5C4.12534 11.5 6.69668 12.5602 8.59254 14.4472C10.4884 16.3343 11.5535 18.8938 11.5535 21.5625C11.5535 21.9437 11.7056 22.3094 11.9765 22.579C12.2473 22.8486 12.6147 23 12.9977 23C13.3807 23 13.748 22.8486 14.0189 22.579C14.2897 22.3094 14.4419 21.9437 14.4419 21.5625C14.4419 18.1313 13.0725 14.8406 10.6349 12.4143C8.19739 9.98805 4.89138 8.625 1.44419 8.625Z" fill="#E0AC76"/>
</svg>
