<svg width="20" height="24" viewBox="0 0 20 24" fill="none" xmlns="http://www.w3.org/2000/svg">
<path d="M17.0922 0.936344C17.0303 0.665651 16.875 0.424449 16.6528 0.253794C16.4306 0.083139 16.1551 -0.00642099 15.8734 0.000358472H3.68584C3.40411 -0.00642099 3.1287 0.083139 2.90649 0.253794C2.68428 0.424449 2.529 0.665651 2.46709 0.936344L0.0295702 11.7362C-0.0107897 11.9133 -0.00982278 12.0971 0.0323981 12.2738C0.0746189 12.4504 0.156993 12.6154 0.273321 12.7562C0.390589 12.8986 0.539445 13.0127 0.708461 13.0896C0.877478 13.1666 1.06216 13.2044 1.24833 13.2002H6.05023C6.09924 13.5983 6.12366 13.9991 6.12336 14.4001C6.13477 17.2286 5.00868 19.9465 2.99115 21.96C2.82344 22.1285 2.70988 22.3419 2.66466 22.5735C2.61944 22.8052 2.64456 23.0448 2.73689 23.2625C2.82922 23.4802 2.98467 23.6662 3.18379 23.7974C3.38291 23.9285 3.61689 23.999 3.85647 24H15.7028C15.9424 23.999 16.1763 23.9285 16.3755 23.7974C16.5746 23.6662 16.73 23.4802 16.8224 23.2625C16.9147 23.0448 16.9398 22.8052 16.8946 22.5735C16.8494 22.3419 16.7358 22.1285 16.5681 21.96C14.5506 19.9465 13.4245 17.2286 13.4359 14.4001C13.4356 13.9991 13.46 13.5983 13.509 13.2002H14.6547V15.6001C14.6547 15.9184 14.7831 16.2236 15.0116 16.4486C15.2402 16.6737 15.5502 16.8001 15.8734 16.8001C16.1967 16.8001 16.5066 16.6737 16.7352 16.4486C16.9638 16.2236 17.0922 15.9184 17.0922 15.6001V13.2002H18.3109C18.493 13.2008 18.6729 13.1612 18.8374 13.0844C19.0019 13.0075 19.1469 12.8954 19.2616 12.7562C19.3779 12.6154 19.4603 12.4504 19.5025 12.2738C19.5447 12.0971 19.5457 11.9133 19.5053 11.7362L17.0922 0.936344ZM6.39148 21.6C7.81389 19.4605 8.56811 16.9573 8.56087 14.4001C8.56087 14.0041 8.56087 13.5962 8.49993 13.2002H11.0593C11.0593 13.5962 10.9984 14.0041 10.9984 14.4001C10.9911 16.9573 11.7454 19.4605 13.1678 21.6H6.39148ZM2.73521 10.8002L4.66085 2.40032H14.8984L16.7875 10.8002H2.73521Z" fill="#E0AC76"/>
</svg>
