<svg width="43" height="43" viewBox="0 0 43 43" fill="none" xmlns="http://www.w3.org/2000/svg">
<path d="M26.574 26.2945C25.1368 27.4533 23.3462 28.0852 21.5 28.0852C19.6538 28.0852 17.8632 27.4533 16.426 26.2945C15.9869 25.9296 15.4209 25.754 14.8524 25.8064C14.2839 25.8588 13.7594 26.1349 13.3945 26.574C13.0296 27.0131 12.854 27.5791 12.9064 28.1476C12.9588 28.7161 13.2349 29.2406 13.674 29.6055C15.8699 31.4386 18.6396 32.4427 21.5 32.4427C24.3604 32.4427 27.1301 31.4386 29.326 29.6055C29.7651 29.2406 30.0412 28.7161 30.0936 28.1476C30.146 27.5791 29.9704 27.0131 29.6055 26.574C29.4248 26.3566 29.2031 26.1769 28.9529 26.0452C28.7028 25.9135 28.4291 25.8324 28.1476 25.8064C27.5791 25.754 27.0131 25.9296 26.574 26.2945ZM15.5015 18.361C15.9043 18.7614 16.4493 18.9862 17.0173 18.9862C17.5853 18.9862 18.1302 18.7614 18.533 18.361C18.9334 17.9582 19.1582 17.4132 19.1582 16.8452C19.1582 16.2772 18.9334 15.7323 18.533 15.3295C17.3026 14.162 15.6711 13.5112 13.975 13.5112C12.2789 13.5112 10.6474 14.162 9.41701 15.3295C9.19194 15.5222 9.00915 15.7594 8.8801 16.0262C8.75105 16.2929 8.67853 16.5834 8.66709 16.8795C8.65565 17.1756 8.70555 17.4709 8.81364 17.7468C8.92173 18.0227 9.08568 18.2733 9.29521 18.4828C9.50474 18.6923 9.75531 18.8563 10.0312 18.9644C10.3071 19.0725 10.6024 19.1223 10.8985 19.1109C11.1946 19.0995 11.4851 19.027 11.7518 18.8979C12.0186 18.7689 12.2558 18.5861 12.4485 18.361C12.6484 18.1595 12.8862 17.9995 13.1482 17.8904C13.4102 17.7812 13.6912 17.725 13.975 17.725C14.2588 17.725 14.5398 17.7812 14.8018 17.8904C15.0638 17.9995 15.3016 18.1595 15.5015 18.361ZM33.583 15.3295C32.3526 14.162 30.7211 13.5112 29.025 13.5112C27.3289 13.5112 25.6974 14.162 24.467 15.3295C24.1148 15.7408 23.9307 16.2699 23.9516 16.811C23.9725 17.3521 24.1968 17.8654 24.5797 18.2483C24.9626 18.6312 25.4759 18.8555 26.017 18.8764C26.5581 18.8973 27.0872 18.7132 27.4985 18.361C27.6984 18.1595 27.9362 17.9995 28.1982 17.8904C28.4602 17.7812 28.7412 17.725 29.025 17.725C29.3088 17.725 29.5898 17.7812 29.8518 17.8904C30.1138 17.9995 30.3516 18.1595 30.5515 18.361C30.9543 18.7614 31.4993 18.9862 32.0673 18.9862C32.6353 18.9862 33.1802 18.7614 33.583 18.361C33.9834 17.9582 34.2082 17.4132 34.2082 16.8452C34.2082 16.2772 33.9834 15.7323 33.583 15.3295ZM21.5 0C17.2477 0 13.0909 1.26095 9.55525 3.6234C6.01959 5.98585 3.26388 9.34369 1.6366 13.2723C0.00931561 17.2009 -0.416456 21.5238 0.413126 25.6944C1.24271 29.865 3.29038 33.696 6.29721 36.7028C9.30404 39.7096 13.135 41.7573 17.3056 42.5869C21.4762 43.4165 25.7991 42.9907 29.7277 41.3634C33.6563 39.7361 37.0141 36.9804 39.3766 33.4448C41.739 29.9091 43 25.7523 43 21.5C43 18.6766 42.4439 15.8808 41.3634 13.2723C40.2829 10.6638 38.6993 8.29366 36.7028 6.2972C34.7063 4.30074 32.3362 2.71707 29.7277 1.63659C27.1192 0.556114 24.3234 0 21.5 0ZM21.5 38.7C18.0982 38.7 14.7727 37.6912 11.9442 35.8013C9.11567 33.9113 6.91111 31.225 5.60928 28.0821C4.30745 24.9393 3.96684 21.4809 4.6305 18.1444C5.29417 14.808 6.93231 11.7432 9.33777 9.33776C11.7432 6.9323 14.808 5.29416 18.1445 4.63049C21.4809 3.96683 24.9393 4.30744 28.0822 5.60927C31.225 6.9111 33.9113 9.11566 35.8013 11.9442C37.6912 14.7727 38.7 18.0982 38.7 21.5C38.7 26.0617 36.8879 30.4366 33.6622 33.6622C30.4366 36.8879 26.0617 38.7 21.5 38.7Z" fill="#E0AC76"/>
</svg>
