<svg width="42" height="43" viewBox="0 0 42 43" fill="none" xmlns="http://www.w3.org/2000/svg">
<path d="M30.2307 6.29128C28.3295 6.28977 26.4636 6.80475 24.8324 7.78122C23.6496 5.06647 21.5726 2.8388 18.9472 1.46916C16.3218 0.0995264 13.3064 -0.329423 10.4032 0.253744C7.49995 0.836912 4.88411 2.397 2.99124 4.67423C1.09836 6.95146 0.0426836 9.80839 0 12.7693V21.4066C0.00310046 24.4661 1.08884 27.4258 3.06493 29.7616C5.04102 32.0973 7.77996 33.6584 10.7967 34.1683V40.8407C10.7967 41.4134 11.0242 41.9626 11.4291 42.3675C11.8341 42.7725 12.3833 43 12.956 43C13.5287 43 14.0779 42.7725 14.4829 42.3675C14.8879 41.9626 15.1154 41.4134 15.1154 40.8407V34.1683C17.3151 33.7866 19.3812 32.8501 21.1183 31.4475C21.8892 32.6848 22.9027 33.7532 24.0977 34.5882C25.2927 35.4232 26.6444 36.0076 28.0714 36.3061V40.8407C28.0714 41.4134 28.2989 41.9626 28.7038 42.3675C29.1088 42.7725 29.658 43 30.2307 43C30.8034 43 31.3526 42.7725 31.7576 42.3675C32.1626 41.9626 32.3901 41.4134 32.3901 40.8407V36.3061C34.8287 35.8083 37.0205 34.4832 38.5945 32.5551C40.1685 30.627 41.0279 28.2143 41.0274 25.7253V17.088C41.0274 14.2245 39.8899 11.4783 37.8651 9.45355C35.8404 7.42878 33.0942 6.29128 30.2307 6.29128ZM19.434 17.088V25.7253C19.4547 26.1376 19.4979 26.5485 19.5636 26.9561C18.4087 28.3315 16.8539 29.3128 15.1154 29.7633V23.566C15.1154 22.9933 14.8879 22.444 14.4829 22.0391C14.0779 21.6341 13.5287 21.4066 12.956 21.4066C12.3833 21.4066 11.8341 21.6341 11.4291 22.0391C11.0242 22.444 10.7967 22.9933 10.7967 23.566V29.7417C8.94727 29.2642 7.30829 28.1871 6.13616 26.679C4.96404 25.1708 4.32488 23.3167 4.31867 21.4066V12.7693C4.31304 11.0582 4.81579 9.3839 5.76313 7.95893C6.71048 6.53396 8.05973 5.42248 9.63972 4.7655C11.2197 4.10852 12.9592 3.93564 14.6376 4.2688C16.316 4.60195 17.8577 5.42613 19.0669 6.63677C20.2359 7.82146 21.0317 9.32299 21.3558 10.9554C20.1076 12.7572 19.4373 14.8961 19.434 17.088ZM36.7087 25.7253C36.705 27.0618 36.2879 28.3644 35.5147 29.4546C34.7416 30.5448 33.6501 31.3691 32.3901 31.8146V23.566C32.3901 22.9933 32.1626 22.444 31.7576 22.0391C31.3526 21.6341 30.8034 21.4066 30.2307 21.4066C29.658 21.4066 29.1088 21.6341 28.7038 22.0391C28.2989 22.444 28.0714 22.9933 28.0714 23.566V31.8146C26.8113 31.3691 25.7199 30.5448 24.9467 29.4546C24.1735 28.3644 23.7565 27.0618 23.7527 25.7253V17.088C23.7527 15.3699 24.4352 13.7222 25.6501 12.5073C26.8649 11.2925 28.5126 10.61 30.2307 10.61C31.9488 10.61 33.5965 11.2925 34.8114 12.5073C36.0262 13.7222 36.7087 15.3699 36.7087 17.088V25.7253Z" fill="#E0AC76"/>
</svg>
