<svg width="46" height="43" viewBox="0 0 46 43" fill="none" xmlns="http://www.w3.org/2000/svg">
<path d="M44.9327 16.2576C44.7908 15.8465 44.5327 15.4855 44.1896 15.2182C43.8465 14.9509 43.4333 14.7889 43 14.7519L30.2126 12.8866L24.4818 1.26775C24.2978 0.887792 24.0105 0.567349 23.6528 0.343134C23.295 0.118919 22.8814 0 22.4592 0C22.037 0 21.6234 0.118919 21.2657 0.343134C20.9079 0.567349 20.6206 0.887792 20.4366 1.26775L14.7058 12.8641L1.91841 14.7519C1.50247 14.811 1.11144 14.9855 0.789675 15.2556C0.467913 15.5258 0.228308 15.8807 0.0980515 16.2801C-0.0211819 16.6704 -0.0318816 17.0858 0.0671004 17.4817C0.166082 17.8776 0.37101 18.2391 0.65989 18.5274L9.94146 27.5168L7.6941 40.2818C7.60337 40.7052 7.63692 41.1459 7.79071 41.5507C7.94449 41.9556 8.21198 42.3073 8.56097 42.5637C8.90997 42.8202 9.32562 42.9703 9.75791 42.996C10.1902 43.0218 10.6207 42.9221 10.9977 42.7089L22.4592 36.7085L33.9207 42.7089C34.2361 42.8869 34.5924 42.9798 34.9545 42.9786C35.4305 42.9803 35.8948 42.8308 36.2804 42.5516C36.6291 42.3019 36.899 41.9575 37.0583 41.5593C37.2176 41.1611 37.2596 40.7256 37.1794 40.3043L34.932 27.5393L44.2136 18.5499C44.5381 18.275 44.7779 17.9137 44.9052 17.5079C45.0325 17.1021 45.042 16.6686 44.9327 16.2576ZM31.1115 25.247C30.8514 25.4996 30.6563 25.8114 30.5428 26.1558C30.4293 26.5002 30.4008 26.8669 30.4598 27.2247L32.0779 36.6636L23.6278 32.1689C23.2994 32.0064 22.938 31.9219 22.5716 31.9219C22.2052 31.9219 21.8437 32.0064 21.5153 32.1689L13.0653 36.6636L14.6834 27.2247C14.7423 26.8669 14.7139 26.5002 14.6004 26.1558C14.4869 25.8114 14.2918 25.4996 14.0316 25.247L7.28958 18.5049L16.7509 17.1341C17.115 17.0834 17.4611 16.9443 17.7589 16.7288C18.0566 16.5133 18.297 16.228 18.4589 15.898L22.4592 7.33561L26.6842 15.9205C26.8461 16.2505 27.0865 16.5357 27.3843 16.7512C27.6821 16.9667 28.0282 17.1059 28.3922 17.1565L37.8536 18.5274L31.1115 25.247Z" fill="#E0AC76"/>
</svg>
