<svg width="51" height="43" viewBox="0 0 51 43" fill="none" xmlns="http://www.w3.org/2000/svg">
<path d="M48.45 17.7059H45.9V15.1765C45.9 14.5056 45.6313 13.8623 45.1531 13.3879C44.6749 12.9136 44.0263 12.6471 43.35 12.6471C42.6737 12.6471 42.0251 12.9136 41.5469 13.3879C41.0687 13.8623 40.8 14.5056 40.8 15.1765V17.7059H38.25C37.5737 17.7059 36.9251 17.9724 36.4469 18.4467C35.9687 18.9211 35.7 19.5645 35.7 20.2353C35.7 20.9061 35.9687 21.5495 36.4469 22.0239C36.9251 22.4982 37.5737 22.7647 38.25 22.7647H40.8V25.2941C40.8 25.965 41.0687 26.6083 41.5469 27.0827C42.0251 27.557 42.6737 27.8235 43.35 27.8235C44.0263 27.8235 44.6749 27.557 45.1531 27.0827C45.6313 26.6083 45.9 25.965 45.9 25.2941V22.7647H48.45C49.1263 22.7647 49.7749 22.4982 50.2531 22.0239C50.7313 21.5495 51 20.9061 51 20.2353C51 19.5645 50.7313 18.9211 50.2531 18.4467C49.7749 17.9724 49.1263 17.7059 48.45 17.7059ZM28.815 22.0565C30.1756 20.8882 31.267 19.4433 32.0149 17.8198C32.7629 16.1962 33.15 14.4321 33.15 12.6471C33.15 9.29285 31.8067 6.07602 29.4156 3.70424C27.0245 1.33245 23.7815 0 20.4 0C17.0185 0 13.7755 1.33245 11.3844 3.70424C8.9933 6.07602 7.65 9.29285 7.65 12.6471C7.64998 14.4321 8.03709 16.1962 8.78507 17.8198C9.53305 19.4433 10.6244 20.8882 11.985 22.0565C8.41536 23.6598 5.38679 26.249 3.2614 29.5146C1.13601 32.7801 0.00375323 36.5837 0 40.4706C0 41.1414 0.26866 41.7848 0.746878 42.2592C1.2251 42.7335 1.8737 43 2.55 43C3.2263 43 3.8749 42.7335 4.35312 42.2592C4.83134 41.7848 5.1 41.1414 5.1 40.4706C5.1 36.4455 6.71196 32.5853 9.58127 29.7392C12.4506 26.8931 16.3422 25.2941 20.4 25.2941C24.4578 25.2941 28.3494 26.8931 31.2187 29.7392C34.088 32.5853 35.7 36.4455 35.7 40.4706C35.7 41.1414 35.9687 41.7848 36.4469 42.2592C36.9251 42.7335 37.5737 43 38.25 43C38.9263 43 39.5749 42.7335 40.0531 42.2592C40.5313 41.7848 40.8 41.1414 40.8 40.4706C40.7962 36.5837 39.664 32.7801 37.5386 29.5146C35.4132 26.249 32.3846 23.6598 28.815 22.0565ZM20.4 20.2353C18.887 20.2353 17.4079 19.7903 16.1499 18.9564C14.8919 18.1226 13.9113 16.9375 13.3323 15.551C12.7533 14.1644 12.6018 12.6386 12.897 11.1667C13.1922 9.69469 13.9208 8.3426 14.9906 7.28137C16.0605 6.22013 17.4236 5.49742 18.9076 5.20463C20.3915 4.91184 21.9297 5.06211 23.3275 5.63644C24.7254 6.21078 25.9201 7.18338 26.7607 8.43126C27.6013 9.67914 28.05 11.1462 28.05 12.6471C28.05 14.6596 27.244 16.5897 25.8094 18.0128C24.3747 19.4358 22.4289 20.2353 20.4 20.2353Z" fill="#E0AC76"/>
</svg>
