<svg width="68" height="43" viewBox="0 0 68 43" fill="none" xmlns="http://www.w3.org/2000/svg">
<path d="M2.53955 6.89416C3.193 7.08604 3.82119 7.35526 4.41079 7.69612C6.48191 8.93225 8.84892 9.58491 11.2609 9.58491C13.6728 9.58491 16.0399 8.93225 18.111 7.69612C19.4157 6.95817 20.8892 6.57035 22.3881 6.57035C23.8871 6.57035 25.3605 6.95817 26.6652 7.69612C28.7614 8.8947 31.1341 9.52518 33.5487 9.52518C35.9634 9.52518 38.3361 8.8947 40.4323 7.69612C41.737 6.95817 43.2104 6.57035 44.7094 6.57035C46.2083 6.57035 47.6818 6.95817 48.9865 7.69612C51.1042 8.90637 53.4978 9.55082 55.9369 9.56736C58.2932 9.5625 60.6036 8.91558 62.6199 7.69612C63.2095 7.35526 63.8377 7.08604 64.4911 6.89416C65.3419 6.64601 66.0592 6.07007 66.4854 5.29301C66.9115 4.51596 67.0115 3.60146 66.7634 2.75068C66.5152 1.89991 65.9393 1.18256 65.1622 0.756431C64.3852 0.330306 63.4707 0.230317 62.6199 0.478459C61.4483 0.840006 60.326 1.34507 59.2784 1.98214C58.2139 2.60464 57.0029 2.93272 55.7698 2.93272C54.5366 2.93272 53.3257 2.60464 52.2612 1.98214C49.9443 0.682532 47.3324 0 44.676 0C42.0195 0 39.4076 0.682532 37.0907 1.98214C36.015 2.60718 34.7929 2.93641 33.5487 2.93641C32.3046 2.93641 31.0825 2.60718 30.0067 1.98214C27.6899 0.682532 25.078 0 22.4215 0C19.7651 0 17.1532 0.682532 14.8363 1.98214C13.7718 2.60464 12.5609 2.93272 11.3277 2.93272C10.0946 2.93272 8.88362 2.60464 7.81913 1.98214C6.77155 1.34507 5.64919 0.840006 4.47762 0.478459C3.62685 0.230317 2.71234 0.330306 1.93529 0.756431C1.15824 1.18256 0.582293 1.89991 0.334151 2.75068C0.0860084 3.60146 0.185998 4.51596 0.612123 5.29301C1.03825 6.07007 1.7556 6.64601 2.60638 6.89416H2.53955ZM62.6867 33.8935C61.5151 34.2551 60.3928 34.7602 59.3452 35.3972C58.2807 36.0197 57.0698 36.3478 55.8366 36.3478C54.6035 36.3478 53.3925 36.0197 52.328 35.3972C50.0112 34.0976 47.3993 33.4151 44.7428 33.4151C42.0863 33.4151 39.4744 34.0976 37.1576 35.3972C36.0818 36.0223 34.8598 36.3515 33.6156 36.3515C32.3714 36.3515 31.1494 36.0223 30.0736 35.3972C27.7567 34.0976 25.1448 33.4151 22.4884 33.4151C19.8319 33.4151 17.22 34.0976 14.9031 35.3972C13.8386 36.0197 12.6277 36.3478 11.3945 36.3478C10.1614 36.3478 8.95045 36.0197 7.88596 35.3972C6.83838 34.7602 5.71602 34.2551 4.54445 33.8935C4.12319 33.7707 3.68186 33.732 3.24564 33.7797C2.80943 33.8274 2.38688 33.9605 2.00212 34.1715C1.61737 34.3825 1.27794 34.6672 1.00321 35.0094C0.728487 35.3516 0.523849 35.7445 0.400981 36.1658C0.278113 36.587 0.239422 37.0284 0.287117 37.4646C0.334811 37.9008 0.467957 38.3233 0.678953 38.7081C0.889949 39.0929 1.17466 39.4323 1.51684 39.707C1.85901 39.9817 2.25195 40.1864 2.67321 40.3092C3.32666 40.5011 3.95485 40.7703 4.54445 41.1112C6.61557 42.3473 8.98258 43 11.3945 43C13.8065 43 16.1735 42.3473 18.2446 41.1112C19.5494 40.3733 21.0228 39.9854 22.5218 39.9854C24.0207 39.9854 25.4942 40.3733 26.7989 41.1112C28.895 42.3098 31.2678 42.9403 33.6824 42.9403C36.097 42.9403 38.4698 42.3098 40.5659 41.1112C41.8706 40.3733 43.3441 39.9854 44.843 39.9854C46.342 39.9854 47.8155 40.3733 49.1202 41.1112C51.2378 42.3215 53.6315 42.9659 56.0705 42.9825C58.4268 42.9776 60.7373 42.3307 62.7535 41.1112C63.3431 40.7703 63.9713 40.5011 64.6248 40.3092C65.4756 40.0611 66.1929 39.4851 66.619 38.7081C67.0452 37.931 67.1451 37.0165 66.897 36.1658C66.6489 35.315 66.0729 34.5976 65.2959 34.1715C64.5188 33.7454 63.6043 33.6454 62.7535 33.8935H62.6867ZM62.6867 17.186C61.5151 17.5475 60.3928 18.0526 59.3452 18.6897C58.2807 19.3122 57.0698 19.6403 55.8366 19.6403C54.6035 19.6403 53.3925 19.3122 52.328 18.6897C50.0112 17.3901 47.3993 16.7075 44.7428 16.7075C42.0863 16.7075 39.4744 17.3901 37.1576 18.6897C36.0818 19.3147 34.8598 19.644 33.6156 19.644C32.3714 19.644 31.1494 19.3147 30.0736 18.6897C27.7567 17.3901 25.1448 16.7075 22.4884 16.7075C19.8319 16.7075 17.22 17.3901 14.9031 18.6897C13.8386 19.3122 12.6277 19.6403 11.3945 19.6403C10.1614 19.6403 8.95045 19.3122 7.88596 18.6897C6.83838 18.0526 5.71602 17.5475 4.54445 17.186C4.10692 17.0208 3.63959 16.9493 3.17269 16.9761C2.70578 17.0029 2.2497 17.1274 1.83395 17.3416C1.4182 17.5558 1.05204 17.8549 0.759154 18.2195C0.466265 18.5841 0.253173 19.0061 0.133661 19.4582C0.0107929 19.8795 -0.0278983 20.3208 0.0197962 20.757C0.0674908 21.1933 0.200637 21.6158 0.411633 22.0006C0.622628 22.3853 0.907342 22.7247 1.24952 22.9995C1.59169 23.2742 1.98463 23.4788 2.40589 23.6017C3.05933 23.7936 3.68753 24.0628 4.27713 24.4037C6.34825 25.6398 8.71526 26.2925 11.1272 26.2925C13.5392 26.2925 15.9062 25.6398 17.9773 24.4037C19.282 23.6657 20.7555 23.2779 22.2544 23.2779C23.7534 23.2779 25.2269 23.6657 26.5316 24.4037C28.6277 25.6022 31.0005 26.2327 33.4151 26.2327C35.8297 26.2327 38.2025 25.6022 40.2986 24.4037C41.6033 23.6657 43.0768 23.2779 44.5757 23.2779C46.0747 23.2779 47.5481 23.6657 48.8529 24.4037C50.9705 25.6139 53.3642 26.2584 55.8032 26.2749C58.1595 26.27 60.47 25.6231 62.4862 24.4037C63.0758 24.0628 63.704 23.7936 64.3575 23.6017C65.2082 23.3536 65.9256 22.7776 66.3517 22.0006C66.7778 21.2235 66.8778 20.309 66.6297 19.4582C66.3815 18.6075 65.8056 17.8901 65.0285 17.464C64.2515 17.0378 63.337 16.9379 62.4862 17.186H62.6867Z" fill="#E0AC76"/>
</svg>
