<svg width="39" height="43" viewBox="0 0 39 43" fill="none" xmlns="http://www.w3.org/2000/svg">
<path d="M15.05 12.9H27.95C28.5202 12.9 29.0671 12.6735 29.4703 12.2703C29.8735 11.8671 30.1 11.3202 30.1 10.75C30.1 10.1798 29.8735 9.63292 29.4703 9.22972C29.0671 8.82652 28.5202 8.6 27.95 8.6H15.05C14.4798 8.6 13.9329 8.82652 13.5297 9.22972C13.1265 9.63292 12.9 10.1798 12.9 10.75C12.9 11.3202 13.1265 11.8671 13.5297 12.2703C13.9329 12.6735 14.4798 12.9 15.05 12.9ZM10.75 21.5H27.95C28.5202 21.5 29.0671 21.2735 29.4703 20.8703C29.8735 20.4671 30.1 19.9202 30.1 19.35C30.1 18.7798 29.8735 18.2329 29.4703 17.8297C29.0671 17.4265 28.5202 17.2 27.95 17.2H10.75C10.1798 17.2 9.63292 17.4265 9.22972 17.8297C8.82652 18.2329 8.6 18.7798 8.6 19.35C8.6 19.9202 8.82652 20.4671 9.22972 20.8703C9.63292 21.2735 10.1798 21.5 10.75 21.5ZM10.75 30.1H27.95C28.5202 30.1 29.0671 29.8735 29.4703 29.4703C29.8735 29.0671 30.1 28.5202 30.1 27.95C30.1 27.3798 29.8735 26.8329 29.4703 26.4297C29.0671 26.0265 28.5202 25.8 27.95 25.8H10.75C10.1798 25.8 9.63292 26.0265 9.22972 26.4297C8.82652 26.8329 8.6 27.3798 8.6 27.95C8.6 28.5202 8.82652 29.0671 9.22972 29.4703C9.63292 29.8735 10.1798 30.1 10.75 30.1ZM36.55 0H2.15C1.57978 0 1.03292 0.226517 0.62972 0.62972C0.226517 1.03292 0 1.57978 0 2.15V40.85C0 41.2493 0.111187 41.6407 0.321101 41.9803C0.531015 42.32 0.831363 42.5945 1.18849 42.773C1.54562 42.9516 1.94541 43.0272 2.34308 42.9913C2.74075 42.9555 3.12057 42.8096 3.44 42.57L7.8905 39.2375L12.3195 42.57C12.6917 42.8491 13.1443 43 13.6095 43C14.0747 43 14.5273 42.8491 14.8995 42.57L19.35 39.2375L23.8005 42.57C24.1727 42.8491 24.6253 43 25.0905 43C25.5557 43 26.0083 42.8491 26.3805 42.57L30.8095 39.2375L35.26 42.57C35.581 42.8092 35.9623 42.9541 36.3612 42.9883C36.76 43.0224 37.1605 42.9446 37.5175 42.7635C37.8721 42.5848 38.1702 42.3115 38.379 41.9737C38.5877 41.636 38.6988 41.247 38.7 40.85V2.15C38.7 1.57978 38.4735 1.03292 38.0703 0.62972C37.6671 0.226517 37.1202 0 36.55 0ZM34.4 36.55L32.0995 34.83C31.7273 34.5509 31.2747 34.4 30.8095 34.4C30.3443 34.4 29.8917 34.5509 29.5195 34.83L25.0905 38.1625L20.64 34.83C20.2678 34.5509 19.8152 34.4 19.35 34.4C18.8848 34.4 18.4322 34.5509 18.06 34.83L13.6095 38.1625L9.1805 34.83C8.80834 34.5509 8.3557 34.4 7.8905 34.4C7.4253 34.4 6.97266 34.5509 6.6005 34.83L4.3 36.55V4.3H34.4V36.55Z" fill="#E0AC76"/>
</svg>
