<svg width="30" height="24" viewBox="0 0 30 24" fill="none" xmlns="http://www.w3.org/2000/svg">
<path d="M23.4773 11H16.0682V5C16.0682 4.73478 15.9381 4.48043 15.7065 4.29289C15.475 4.10536 15.1609 4 14.8334 4C14.5059 4 14.1918 4.10536 13.9602 4.29289C13.7286 4.48043 13.5985 4.73478 13.5985 5V11H6.18944C5.86194 11 5.54785 11.1054 5.31627 11.2929C5.08469 11.4804 4.95459 11.7348 4.95459 12C4.95459 12.2652 5.08469 12.5196 5.31627 12.7071C5.54785 12.8946 5.86194 13 6.18944 13H13.5985V19C13.5985 19.2652 13.7286 19.5196 13.9602 19.7071C14.1918 19.8946 14.5059 20 14.8334 20C15.1609 20 15.475 19.8946 15.7065 19.7071C15.9381 19.5196 16.0682 19.2652 16.0682 19V13H23.4773C23.8048 13 24.1189 12.8946 24.3505 12.7071C24.5821 12.5196 24.7122 12.2652 24.7122 12C24.7122 11.7348 24.5821 11.4804 24.3505 11.2929C24.1189 11.1054 23.8048 11 23.4773 11Z" fill="white"/>
</svg>
