<svg width="33" height="24" viewBox="0 0 33 24" fill="none" xmlns="http://www.w3.org/2000/svg">
<path d="M32.3076 12.7059V18.3529C32.3076 18.7274 32.1529 19.0865 31.8775 19.3512C31.6021 19.616 31.2286 19.7647 30.8391 19.7647H29.3706C29.3706 20.888 28.9064 21.9652 28.0802 22.7595C27.254 23.5538 26.1334 24 24.965 24C23.7965 24 22.6759 23.5538 21.8497 22.7595C21.0235 21.9652 20.5594 20.888 20.5594 19.7647H11.7482C11.7482 20.888 11.284 21.9652 10.4578 22.7595C9.6316 23.5538 8.51102 24 7.34258 24C6.17415 24 5.05357 23.5538 4.22736 22.7595C3.40115 21.9652 2.93699 20.888 2.93699 19.7647H1.46846C1.07898 19.7647 0.705448 19.616 0.430046 19.3512C0.154644 19.0865 -7.62939e-05 18.7274 -7.62939e-05 18.3529V4.23529C-7.62939e-05 3.11202 0.464087 2.03476 1.29029 1.24049C2.1165 0.446217 3.23708 0 4.40552 0H21.3817C22.3046 0.00165983 23.2037 0.281906 23.952 0.801184C24.7003 1.32046 25.2601 2.05255 25.5524 2.89412L27.6671 8.97882L31.6468 11.5341C31.8488 11.662 32.0148 11.8359 32.1301 12.0403C32.2454 12.2447 32.3064 12.4734 32.3076 12.7059ZM2.93699 8.47059H5.87405V2.82353H4.40552C4.01604 2.82353 3.64251 2.97227 3.36711 3.23703C3.09171 3.50178 2.93699 3.86087 2.93699 4.23529V8.47059ZM8.81111 19.7647C8.81111 19.4855 8.72499 19.2125 8.56362 18.9804C8.40226 18.7482 8.1729 18.5673 7.90456 18.4604C7.63622 18.3536 7.34095 18.3256 7.05609 18.3801C6.77122 18.4345 6.50955 18.569 6.30417 18.7664C6.09879 18.9639 5.95893 19.2154 5.90227 19.4893C5.84561 19.7631 5.87469 20.047 5.98584 20.305C6.09699 20.5629 6.28521 20.7834 6.52671 20.9385C6.76821 21.0937 7.05214 21.1765 7.34258 21.1765C7.73206 21.1765 8.10559 21.0277 8.38099 20.763C8.65639 20.4982 8.81111 20.1391 8.81111 19.7647ZM11.7482 11.2941H2.93699V16.9412H4.08244C4.49537 16.5044 4.99868 16.1555 5.5601 15.9167C6.12153 15.6779 6.72867 15.5546 7.34258 15.5546C7.9565 15.5546 8.56364 15.6779 9.12506 15.9167C9.68649 16.1555 10.1898 16.5044 10.6027 16.9412H11.7482V11.2941ZM11.7482 2.82353H8.81111V8.47059H11.7482V2.82353ZM17.6223 11.2941H14.6852V16.9412H17.6223V11.2941ZM17.6223 2.82353H14.6852V8.47059H17.6223V2.82353ZM20.5594 8.47059H24.3922L22.7768 3.78353C22.6783 3.50312 22.4906 3.25957 22.2403 3.08731C21.9899 2.91504 21.6896 2.82277 21.3817 2.82353H20.5594V8.47059ZM26.4335 19.7647C26.4335 19.4855 26.3474 19.2125 26.186 18.9804C26.0246 18.7482 25.7953 18.5673 25.5269 18.4604C25.2586 18.3536 24.9633 18.3256 24.6785 18.3801C24.3936 18.4345 24.1319 18.569 23.9266 18.7664C23.7212 18.9639 23.5813 19.2154 23.5246 19.4893C23.468 19.7631 23.4971 20.047 23.6082 20.305C23.7194 20.5629 23.9076 20.7834 24.1491 20.9385C24.3906 21.0937 24.6745 21.1765 24.965 21.1765C25.3544 21.1765 25.728 21.0277 26.0034 20.763C26.2788 20.4982 26.4335 20.1391 26.4335 19.7647ZM29.3706 13.4118L25.9929 11.2941H20.5594V16.9412H21.7048C22.1177 16.5044 22.6211 16.1555 23.1825 15.9167C23.7439 15.6779 24.351 15.5546 24.965 15.5546C25.5789 15.5546 26.186 15.6779 26.7474 15.9167C27.3089 16.1555 27.8122 16.5044 28.2251 16.9412H29.3706V13.4118Z" fill="#E0AC76"/>
</svg>
