<svg width="26" height="26" viewBox="0 0 26 26" fill="none" xmlns="http://www.w3.org/2000/svg">
<path d="M11.9168 2.16667C9.7742 2.16667 7.67969 2.80204 5.89816 3.99242C4.11662 5.1828 2.72809 6.87473 1.90814 8.85427C1.08819 10.8338 0.873654 13.012 1.29166 15.1135C1.70967 17.2149 2.74144 19.1453 4.25651 20.6603C5.77158 22.1754 7.7019 23.2072 9.80336 23.6252C11.9048 24.0432 14.083 23.8287 16.0626 23.0087C18.0421 22.1888 19.734 20.8002 20.9244 19.0187C22.1148 17.2372 22.7502 15.1426 22.7502 13C22.7502 11.5774 22.47 10.1686 21.9255 8.85427C21.3811 7.53991 20.5831 6.34565 19.5772 5.33968C18.5712 4.33371 17.3769 3.53574 16.0626 2.99131C14.7482 2.44688 13.3395 2.16667 11.9168 2.16667ZM11.9168 21.6667C10.2027 21.6667 8.52712 21.1584 7.10189 20.2061C5.67667 19.2538 4.56584 17.9002 3.90988 16.3166C3.25392 14.733 3.08229 12.9904 3.4167 11.3092C3.7511 9.62805 4.57652 8.0838 5.78858 6.87175C7.00063 5.65969 8.54488 4.83427 10.2261 4.49987C11.9072 4.16546 13.6498 4.33709 15.2334 4.99305C16.8171 5.64901 18.1706 6.75984 19.1229 8.18506C20.0752 9.61029 20.5835 11.2859 20.5835 13C20.5835 15.2985 19.6704 17.5029 18.0451 19.1283C16.4198 20.7536 14.2154 21.6667 11.9168 21.6667ZM11.9168 6.50001C11.6295 6.50001 11.354 6.61414 11.1508 6.81731C10.9476 7.02047 10.8335 7.29602 10.8335 7.58334V11.9167H8.66683C8.37952 11.9167 8.10397 12.0308 7.9008 12.234C7.69764 12.4371 7.5835 12.7127 7.5835 13C7.5835 13.2873 7.69764 13.5629 7.9008 13.766C8.10397 13.9692 8.37952 14.0833 8.66683 14.0833H11.9168C12.2042 14.0833 12.4797 13.9692 12.6829 13.766C12.886 13.5629 13.0002 13.2873 13.0002 13V7.58334C13.0002 7.29602 12.886 7.02047 12.6829 6.81731C12.4797 6.61414 12.2042 6.50001 11.9168 6.50001Z" fill="white"/>
</svg>
