<svg width="43" height="43" viewBox="0 0 43 43" fill="none" xmlns="http://www.w3.org/2000/svg">
<path d="M23.65 15.05H19.35V10.75C19.35 10.1798 19.1235 9.63292 18.7203 9.22972C18.3171 8.82652 17.7702 8.6 17.2 8.6C16.6298 8.6 16.0829 8.82652 15.6797 9.22972C15.2765 9.63292 15.05 10.1798 15.05 10.75V15.05H10.75C10.1798 15.05 9.63292 15.2765 9.22972 15.6797C8.82652 16.0829 8.6 16.6298 8.6 17.2C8.6 17.7702 8.82652 18.3171 9.22972 18.7203C9.63292 19.1235 10.1798 19.35 10.75 19.35H15.05V23.65C15.05 24.2202 15.2765 24.7671 15.6797 25.1703C16.0829 25.5735 16.6298 25.8 17.2 25.8C17.7702 25.8 18.3171 25.5735 18.7203 25.1703C19.1235 24.7671 19.35 24.2202 19.35 23.65V19.35H23.65C24.2202 19.35 24.7671 19.1235 25.1703 18.7203C25.5735 18.3171 25.8 17.7702 25.8 17.2C25.8 16.6298 25.5735 16.0829 25.1703 15.6797C24.7671 15.2765 24.2202 15.05 23.65 15.05ZM34.4 27.95V6.45C34.4 4.73935 33.7205 3.09877 32.5108 1.88916C31.3012 0.679552 29.6606 0 27.95 0H6.45C4.73935 0 3.09877 0.679552 1.88916 1.88916C0.679552 3.09877 0 4.73935 0 6.45V27.95C0 29.6606 0.679552 31.3012 1.88916 32.5108C3.09877 33.7205 4.73935 34.4 6.45 34.4H27.95C29.6606 34.4 31.3012 33.7205 32.5108 32.5108C33.7205 31.3012 34.4 29.6606 34.4 27.95ZM4.3 27.95V6.45C4.3 5.87978 4.52652 5.33292 4.92972 4.92972C5.33292 4.52652 5.87978 4.3 6.45 4.3H27.95C28.5202 4.3 29.0671 4.52652 29.4703 4.92972C29.8735 5.33292 30.1 5.87978 30.1 6.45V27.95C30.1 28.5202 29.8735 29.0671 29.4703 29.4703C29.0671 29.8735 28.5202 30.1 27.95 30.1H6.45C5.87978 30.1 5.33292 29.8735 4.92972 29.4703C4.52652 29.0671 4.3 28.5202 4.3 27.95ZM40.85 8.6C40.2798 8.6 39.7329 8.82652 39.3297 9.22972C38.9265 9.63292 38.7 10.1798 38.7 10.75V32.25C38.7 33.9606 38.0205 35.6012 36.8108 36.8108C35.6012 38.0205 33.9606 38.7 32.25 38.7H10.75C10.1798 38.7 9.63292 38.9265 9.22972 39.3297C8.82652 39.7329 8.6 40.2798 8.6 40.85C8.6 41.4202 8.82652 41.9671 9.22972 42.3703C9.63292 42.7735 10.1798 43 10.75 43H32.25C35.1011 43 37.8354 41.8674 39.8514 39.8514C41.8674 37.8354 43 35.1011 43 32.25V10.75C43 10.1798 42.7735 9.63292 42.3703 9.22972C41.9671 8.82652 41.4202 8.6 40.85 8.6Z" fill="#E0AC76"/>
</svg>
