<svg width="23" height="23" viewBox="0 0 23 23" fill="none" xmlns="http://www.w3.org/2000/svg">
<path d="M11.158 5.5752C7.99065 5.5752 5.4248 8.21492 5.4248 11.4706C5.4248 14.7275 7.99065 17.3672 11.158 17.3672C14.3228 17.3672 16.8911 14.7275 16.8911 11.4706C16.8911 8.21492 14.3228 5.5752 11.158 5.5752ZM11.158 15.3014C9.10057 15.3014 7.43259 13.5862 7.43259 11.4718C7.43259 9.35625 9.10057 7.64234 11.158 7.64234C13.2153 7.64234 14.8808 9.35625 14.8808 11.4718C14.8808 13.5862 13.2153 15.3014 11.158 15.3014Z" fill="#E0E0E0"/>
<path d="M17.1191 6.73328C17.8575 6.73328 18.456 6.11781 18.456 5.35858C18.456 4.59936 17.8575 3.98389 17.1191 3.98389C16.3808 3.98389 15.7822 4.59936 15.7822 5.35858C15.7822 6.11781 16.3808 6.73328 17.1191 6.73328Z" fill="#E0E0E0"/>
<path d="M21.7409 3.96086C21.1593 2.41911 19.9749 1.19999 18.4756 0.604458C17.6088 0.269073 16.6923 0.0892658 15.7647 0.0688622C14.5704 0.0153026 14.1922 0 11.1637 0C8.13532 0 7.74716 -1.28266e-07 6.56282 0.0688622C5.63768 0.0879906 4.72121 0.267798 3.85436 0.604458C2.35379 1.19999 1.16945 2.41911 0.589067 3.96086C0.26291 4.85352 0.08805 5.79463 0.0694479 6.7485C0.0161218 7.97527 0 8.36422 0 11.4796C0 14.5937 -9.23977e-09 14.9903 0.0694479 16.2107C0.08805 17.1646 0.26291 18.1057 0.589067 18.9996C1.17069 20.5401 2.35503 21.7592 3.8556 22.356C4.71873 22.7029 5.6352 22.8993 6.5653 22.9299C7.75956 22.9834 8.1378 23 11.1662 23C14.1946 23 14.5828 23 15.7671 22.9299C16.6935 22.9107 17.61 22.7297 18.4781 22.3955C19.9774 21.7975 21.1618 20.5796 21.7434 19.0379C22.0695 18.1452 22.2444 17.2041 22.263 16.2502C22.3163 15.0235 22.3324 14.6345 22.3324 11.5191C22.3324 8.40375 22.3324 8.00843 22.263 6.78804C22.2469 5.82141 22.0733 4.86372 21.7409 3.96086ZM20.2304 16.1163C20.2217 16.8509 20.0928 17.579 19.8447 18.2689C19.4665 19.2725 18.6964 20.0657 17.7216 20.4508C17.0581 20.7046 16.3587 20.8372 15.6506 20.8474C14.4724 20.9035 14.1401 20.9176 11.1191 20.9176C8.09564 20.9176 7.78684 20.9176 6.58639 20.8474C5.88075 20.8385 5.17883 20.7046 4.51659 20.4508C3.53812 20.067 2.76303 19.2738 2.38479 18.2689C2.14172 17.5879 2.01027 16.8674 1.99911 16.1406C1.94578 14.9291 1.93338 14.5873 1.93338 11.4809C1.93338 8.37314 1.93338 8.05561 1.99911 6.81992C2.00779 6.08538 2.13676 5.35851 2.38479 4.66861C2.76303 3.66245 3.53812 2.87054 4.51659 2.48542C5.17883 2.23292 5.88075 2.09902 6.58639 2.08882C7.76576 2.03399 8.09688 2.01868 11.1191 2.01868C14.1413 2.01868 14.4514 2.01869 15.6506 2.08882C16.3587 2.09775 17.0581 2.23165 17.7216 2.48542C18.6964 2.87181 19.4665 3.665 19.8447 4.66861C20.0878 5.34958 20.2192 6.07008 20.2304 6.79696C20.2837 8.0097 20.2974 8.35019 20.2974 11.4579C20.2974 14.5644 20.2974 14.8985 20.244 16.1176H20.2304V16.1163Z" fill="#E0E0E0"/>
</svg>
