<svg width="23" height="23" viewBox="0 0 23 23" fill="none" xmlns="http://www.w3.org/2000/svg">
<path d="M11.4914 5.5753C8.22945 5.5753 5.58691 8.21502 5.58691 11.4707C5.58691 14.7276 8.22945 17.3673 11.4914 17.3673C14.7509 17.3673 17.396 14.7276 17.396 11.4707C17.396 8.21502 14.7509 5.5753 11.4914 5.5753ZM11.4914 15.3015C9.37255 15.3015 7.65471 13.5863 7.65471 11.472C7.65471 9.35635 9.37255 7.64245 11.4914 7.64245C13.6103 7.64245 15.3256 9.35635 15.3256 11.472C15.3256 13.5863 13.6103 15.3015 11.4914 15.3015Z" fill="#E0E0E0"/>
<path d="M17.6308 6.7332C18.3912 6.7332 19.0076 6.11773 19.0076 5.35851C19.0076 4.59928 18.3912 3.98381 17.6308 3.98381C16.8704 3.98381 16.2539 4.59928 16.2539 5.35851C16.2539 6.11773 16.8704 6.7332 17.6308 6.7332Z" fill="#E0E0E0"/>
<path d="M22.3908 3.96086C21.7918 2.41911 20.572 1.19999 19.0279 0.604458C18.1351 0.269073 17.1912 0.0892658 16.2359 0.0688622C15.0059 0.0153026 14.6164 0 11.4974 0C8.3785 0 7.97873 -1.28266e-07 6.759 0.0688622C5.8062 0.0879906 4.86234 0.267798 3.96957 0.604458C2.42414 1.19999 1.20441 2.41911 0.606675 3.96086C0.270768 4.85352 0.0906819 5.79463 0.0715238 6.7485C0.0166037 7.97527 0 8.36422 0 11.4796C0 14.5937 -9.51596e-09 14.9903 0.0715238 16.2107C0.0906819 17.1646 0.270768 18.1057 0.606675 18.9996C1.20569 20.5401 2.42542 21.7592 3.97085 22.356C4.85978 22.7029 5.80364 22.8993 6.76155 22.9299C7.9915 22.9834 8.38105 23 11.5 23C14.6189 23 15.0187 23 16.2384 22.9299C17.1925 22.9107 18.1364 22.7297 19.0304 22.3955C20.5746 21.7975 21.7943 20.5796 22.3933 19.0379C22.7292 18.1452 22.9093 17.2041 22.9285 16.2502C22.9834 15.0235 23 14.6345 23 11.5191C23 8.40375 23 8.00843 22.9285 6.78804C22.9119 5.82141 22.7331 4.86372 22.3908 3.96086ZM20.8351 16.1163C20.8262 16.8509 20.6934 17.579 20.4379 18.2689C20.0484 19.2725 19.2552 20.0657 18.2513 20.4508C17.568 20.7046 16.8477 20.8372 16.1184 20.8474C14.905 20.9035 14.5628 20.9176 11.4515 20.9176C8.33763 20.9176 8.0196 20.9176 6.78326 20.8474C6.05653 20.8385 5.33363 20.7046 4.6516 20.4508C3.64388 20.067 2.84562 19.2738 2.45608 18.2689C2.20574 17.5879 2.07036 16.8674 2.05886 16.1406C2.00394 14.9291 1.99117 14.5873 1.99117 11.4809C1.99117 8.37314 1.99117 8.05561 2.05886 6.81992C2.0678 6.08538 2.20063 5.35851 2.45608 4.66861C2.84562 3.66245 3.64388 2.87054 4.6516 2.48542C5.33363 2.23292 6.05653 2.09902 6.78326 2.08882C7.99789 2.03399 8.33891 2.01868 11.4515 2.01868C14.564 2.01868 14.8833 2.01869 16.1184 2.08882C16.8477 2.09775 17.568 2.23165 18.2513 2.48542C19.2552 2.87181 20.0484 3.665 20.4379 4.66861C20.6882 5.34958 20.8236 6.07008 20.8351 6.79696C20.89 8.0097 20.9041 8.35019 20.9041 11.4579C20.9041 14.5644 20.9041 14.8985 20.8492 16.1176H20.8351V16.1163Z" fill="#E0E0E0"/>
</svg>
