<svg width="219" height="97" viewBox="0 0 219 97" fill="none" xmlns="http://www.w3.org/2000/svg">
<path d="M13.9168 2.16667C11.7742 2.16667 9.67969 2.80204 7.89816 3.99242C6.11662 5.1828 4.72809 6.87473 3.90814 8.85427C3.08819 10.8338 2.87365 13.012 3.29166 15.1135C3.70967 17.2149 4.74144 19.1453 6.25651 20.6603C7.77158 22.1754 9.7019 23.2072 11.8034 23.6252C13.9048 24.0432 16.083 23.8287 18.0626 23.0087C20.0421 22.1888 21.734 20.8002 22.9244 19.0187C24.1148 17.2372 24.7502 15.1426 24.7502 13C24.7502 11.5774 24.47 10.1686 23.9255 8.85427C23.3811 7.53991 22.5831 6.34565 21.5772 5.33968C20.5712 4.33371 19.3769 3.53574 18.0626 2.99131C16.7482 2.44688 15.3395 2.16667 13.9168 2.16667V2.16667ZM13.9168 21.6667C12.2027 21.6667 10.5271 21.1584 9.10189 20.2061C7.67667 19.2538 6.56584 17.9002 5.90988 16.3166C5.25392 14.733 5.08229 12.9904 5.4167 11.3092C5.7511 9.62805 6.57652 8.0838 7.78858 6.87175C9.00063 5.65969 10.5449 4.83427 12.2261 4.49987C13.9072 4.16546 15.6498 4.33709 17.2334 4.99305C18.8171 5.64901 20.1706 6.75984 21.1229 8.18506C22.0752 9.61029 22.5835 11.2859 22.5835 13C22.5835 15.2985 21.6704 17.5029 20.0451 19.1283C18.4198 20.7536 16.2154 21.6667 13.9168 21.6667V21.6667ZM13.9168 6.50001C13.6295 6.50001 13.354 6.61414 13.1508 6.81731C12.9476 7.02047 12.8335 7.29602 12.8335 7.58334V11.9167H10.6668C10.3795 11.9167 10.104 12.0308 9.9008 12.234C9.69764 12.4371 9.5835 12.7127 9.5835 13C9.5835 13.2873 9.69764 13.5629 9.9008 13.766C10.104 13.9692 10.3795 14.0833 10.6668 14.0833H13.9168C14.2042 14.0833 14.4797 13.9692 14.6829 13.766C14.886 13.5629 15.0002 13.2873 15.0002 13V7.58334C15.0002 7.29602 14.886 7.02047 14.6829 6.81731C14.4797 6.61414 14.2042 6.50001 13.9168 6.50001Z" fill="white"/>
<path d="M39.0002 2.16667C36.7016 2.16667 34.4972 3.07976 32.8719 4.70508C31.2466 6.3304 30.3335 8.5348 30.3335 10.8333C30.3335 16.6833 37.971 23.2917 38.296 23.5733C38.4922 23.7412 38.7419 23.8334 39.0002 23.8334C39.2584 23.8334 39.5081 23.7412 39.7043 23.5733C40.0835 23.2917 47.6668 16.6833 47.6668 10.8333C47.6668 8.5348 46.7537 6.3304 45.1284 4.70508C43.5031 3.07976 41.2987 2.16667 39.0002 2.16667V2.16667ZM39.0002 21.2875C36.6927 19.1208 32.5002 14.4517 32.5002 10.8333C32.5002 9.10943 33.185 7.45613 34.404 6.23714C35.623 5.01816 37.2763 4.33334 39.0002 4.33334C40.7241 4.33334 42.3774 5.01816 43.5964 6.23714C44.8153 7.45613 45.5002 9.10943 45.5002 10.8333C45.5002 14.4517 41.3077 19.1317 39.0002 21.2875ZM39.0002 6.50001C38.1431 6.50001 37.3053 6.75415 36.5927 7.2303C35.8801 7.70646 35.3247 8.38323 34.9967 9.17504C34.6687 9.96686 34.5829 10.8381 34.7501 11.6787C34.9173 12.5193 35.33 13.2914 35.936 13.8975C36.5421 14.5035 37.3142 14.9162 38.1548 15.0834C38.9954 15.2506 39.8666 15.1648 40.6585 14.8368C41.4503 14.5088 42.127 13.9534 42.6032 13.2408C43.0793 12.5282 43.3335 11.6904 43.3335 10.8333C43.3335 9.68407 42.8769 8.58187 42.0643 7.76921C41.2516 6.95655 40.1494 6.50001 39.0002 6.50001ZM39.0002 13C38.5716 13 38.1527 12.8729 37.7964 12.6349C37.4401 12.3968 37.1624 12.0584 36.9984 11.6625C36.8344 11.2666 36.7915 10.8309 36.8751 10.4106C36.9587 9.99035 37.1651 9.60429 37.4681 9.30127C37.7711 8.99826 38.1572 8.79191 38.5775 8.7083C38.9978 8.6247 39.4334 8.66761 39.8293 8.8316C40.2252 8.99559 40.5636 9.2733 40.8017 9.6296C41.0398 9.98591 41.1668 10.4048 41.1668 10.8333C41.1668 11.408 40.9386 11.9591 40.5322 12.3654C40.1259 12.7717 39.5748 13 39.0002 13Z" fill="white"/>
<path d="M73.06 14.0833C72.8217 14.0833 72.5725 14.0075 72.3342 13.9533C71.8515 13.847 71.3772 13.7058 70.915 13.5308C70.4124 13.348 69.86 13.3575 69.364 13.5575C68.868 13.7575 68.4635 14.1339 68.2283 14.6142L67.99 15.1017C66.9348 14.5147 65.9652 13.7857 65.1083 12.935C64.2577 12.0781 63.5286 11.1085 62.9417 10.0533L63.3967 9.75C63.877 9.51483 64.2533 9.11032 64.4533 8.61433C64.6533 8.11834 64.6628 7.5659 64.48 7.06333C64.308 6.60012 64.1668 6.12603 64.0575 5.64417C64.0033 5.40583 63.96 5.15667 63.9275 4.9075C63.7959 4.14442 63.3962 3.45339 62.8004 2.95884C62.2046 2.4643 61.4517 2.19874 60.6775 2.21H57.4275C56.9606 2.20562 56.4983 2.30188 56.0719 2.49224C55.6456 2.6826 55.2653 2.96259 54.9569 3.31314C54.6485 3.66369 54.4192 4.07658 54.2847 4.52369C54.1502 4.9708 54.1137 5.44165 54.1775 5.90417C54.7546 10.4427 56.8274 14.6595 60.0683 17.8887C63.3092 21.1178 67.5336 23.1752 72.0742 23.7358H72.4858C73.2847 23.737 74.056 23.4439 74.6525 22.9125C74.9952 22.606 75.269 22.2302 75.4557 21.81C75.6425 21.3898 75.7379 20.9348 75.7358 20.475V17.225C75.7225 16.4725 75.4485 15.7479 74.9605 15.175C74.4725 14.602 73.8008 14.2162 73.06 14.0833V14.0833ZM73.6017 20.5833C73.6015 20.7372 73.5685 20.8892 73.505 21.0293C73.4415 21.1694 73.3489 21.2943 73.2333 21.3958C73.1126 21.5009 72.9711 21.5794 72.8181 21.626C72.665 21.6727 72.5038 21.6866 72.345 21.6667C68.2878 21.1465 64.5192 19.2904 61.6338 16.3911C58.7483 13.4919 56.9101 9.71462 56.4092 5.655C56.3919 5.49631 56.407 5.33577 56.4536 5.18309C56.5001 5.03041 56.5771 4.88874 56.68 4.76667C56.7815 4.65111 56.9065 4.55849 57.0466 4.49498C57.1867 4.43148 57.3387 4.39853 57.4925 4.39833H60.7425C60.9944 4.39273 61.2404 4.47512 61.4381 4.63133C61.6359 4.78753 61.773 5.00778 61.8258 5.25417C61.8692 5.55028 61.9233 5.84278 61.9883 6.13167C62.1135 6.70274 62.28 7.26394 62.4867 7.81083L60.97 8.515C60.8403 8.5745 60.7237 8.65902 60.6267 8.76373C60.5298 8.86843 60.4545 8.99125 60.4052 9.12513C60.3559 9.25901 60.3335 9.40131 60.3393 9.54387C60.3451 9.68642 60.3791 9.82642 60.4392 9.95583C61.9983 13.2955 64.6828 15.98 68.0225 17.5392C68.2862 17.6475 68.5821 17.6475 68.8458 17.5392C68.9809 17.4908 69.1051 17.4162 69.2111 17.3195C69.3171 17.2227 69.4028 17.1059 69.4633 16.9758L70.135 15.4592C70.695 15.6595 71.2666 15.8259 71.8467 15.9575C72.1355 16.0225 72.428 16.0767 72.7242 16.12C72.9705 16.1729 73.1908 16.3099 73.347 16.5077C73.5032 16.7054 73.5856 16.9514 73.58 17.2033L73.6017 20.5833Z" fill="white"/>
<rect x="81" y="3" width="20" height="20" rx="10" fill="#D3A270" fill-opacity="0.7"/>
<path d="M70.2929 45.7071C70.6834 46.0976 71.3166 46.0976 71.7071 45.7071L78.0711 39.3431C78.4616 38.9526 78.4616 38.3195 78.0711 37.9289C77.6805 37.5384 77.0474 37.5384 76.6569 37.9289L71 43.5858L65.3431 37.9289C64.9526 37.5384 64.3195 37.5384 63.9289 37.9289C63.5384 38.3195 63.5384 38.9526 63.9289 39.3431L70.2929 45.7071ZM70 44V45H72V44H70Z" fill="white"/>
<path d="M104.792 37H90.2082C89.9319 37 89.667 37.1054 89.4716 37.2929C89.2763 37.4804 89.1665 37.7348 89.1665 38C89.1665 38.2652 89.2763 38.5196 89.4716 38.7071C89.667 38.8946 89.9319 39 90.2082 39H104.792C105.068 39 105.333 38.8946 105.528 38.7071C105.723 38.5196 105.833 38.2652 105.833 38C105.833 37.7348 105.723 37.4804 105.528 37.2929C105.333 37.1054 105.068 37 104.792 37Z" fill="white"/>
<path d="M133.792 37H127.542V31C127.542 30.7348 127.432 30.4804 127.236 30.2929C127.041 30.1054 126.776 30 126.5 30C126.224 30 125.959 30.1054 125.763 30.2929C125.568 30.4804 125.458 30.7348 125.458 31V37H119.208C118.932 37 118.667 37.1054 118.472 37.2929C118.276 37.4804 118.167 37.7348 118.167 38C118.167 38.2652 118.276 38.5196 118.472 38.7071C118.667 38.8946 118.932 39 119.208 39H125.458V45C125.458 45.2652 125.568 45.5196 125.763 45.7071C125.959 45.8946 126.224 46 126.5 46C126.776 46 127.041 45.8946 127.236 45.7071C127.432 45.5196 127.542 45.2652 127.542 45V39H133.792C134.068 39 134.333 38.8946 134.528 38.7071C134.723 38.5196 134.833 38.2652 134.833 38C134.833 37.7348 134.723 37.4804 134.528 37.2929C134.333 37.1054 134.068 37 133.792 37Z" fill="white"/>
<path d="M117.355 10.605C117.309 10.5581 117.253 10.5209 117.193 10.4956C117.132 10.4702 117.066 10.4571 117 10.4571C116.934 10.4571 116.869 10.4702 116.808 10.4956C116.747 10.5209 116.692 10.5581 116.645 10.605L112.92 14.335L111.355 12.765C111.307 12.7184 111.25 12.6817 111.188 12.6571C111.125 12.6325 111.058 12.6205 110.991 12.6216C110.924 12.6228 110.858 12.6371 110.797 12.6639C110.735 12.6906 110.679 12.7292 110.633 12.7775C110.586 12.8258 110.549 12.8827 110.525 12.9452C110.5 13.0076 110.488 13.0743 110.489 13.1413C110.49 13.2084 110.505 13.2746 110.532 13.3362C110.558 13.3977 110.597 13.4534 110.645 13.5L112.565 15.42C112.612 15.4669 112.667 15.5041 112.728 15.5295C112.789 15.5548 112.854 15.5679 112.92 15.5679C112.986 15.5679 113.052 15.5548 113.113 15.5295C113.173 15.5041 113.229 15.4669 113.275 15.42L117.355 11.34C117.406 11.2932 117.446 11.2364 117.474 11.1731C117.502 11.1099 117.516 11.0416 117.516 10.9725C117.516 10.9035 117.502 10.8352 117.474 10.7719C117.446 10.7087 117.406 10.6518 117.355 10.605V10.605Z" fill="black"/>
</svg>
